<?xml version="1.0" encoding="iso-8859-1"?>
<!-- Generator: Adobe Illustrator 18.0.0, SVG Export Plug-In . SVG Version: 6.00 Build 0)  -->
<!DOCTYPE svg PUBLIC "-//W3C//DTD SVG 1.1//EN" "http://www.w3.org/Graphics/SVG/1.1/DTD/svg11.dtd">
<svg version="1.1" id="Capa_1" xmlns="http://www.w3.org/2000/svg" xmlns:xlink="http://www.w3.org/1999/xlink" x="0px" y="0px"
	 viewBox="0 0 401.953 401.953" style="enable-background:new 0 0 401.953 401.953;" xml:space="preserve">
<g>
	<path style="fill:#3F2D20;" d="M68.919,180.397c-1.975,0-3.919,0.802-5.323,2.195c-1.394,1.403-2.194,3.338-2.194,5.323
		c0,1.974,0.801,3.908,2.194,5.312c1.404,1.402,3.348,2.205,5.323,2.205c1.973,0,3.908-0.803,5.311-2.205
		c1.404-1.404,2.206-3.338,2.206-5.312c0-1.985-0.803-3.929-2.206-5.323C72.837,181.199,70.892,180.397,68.919,180.397z"/>
	<path style="fill:#3F2D20;" d="M276.364,187.162c-21.136-12.192-53.837-26.139-119.869-26.139c-0.57,0-1.143,0.001-1.717,0.003
		c-4.152,0.015-7.505,3.393-7.49,7.545c0.016,4.142,3.377,7.49,7.517,7.49c0.008,0,0.018,0,0.027,0
		c63.579-0.248,94.335,12.772,114.019,24.126c1.182,0.682,2.474,1.006,3.749,1.006c2.599,0,5.127-1.349,6.519-3.762
		C281.194,193.834,279.96,189.238,276.364,187.162z"/>
	<g>
		<path style="fill:#84BD93;" d="M288.82,174.562c0.339,0.221,0.681,0.44,1.013,0.662
			C289.502,175.002,289.159,174.782,288.82,174.562z"/>
		<path style="fill:#84BD93;" d="M292.485,177.066c0.097,0.07,0.199,0.139,0.295,0.209
			C292.684,177.205,292.581,177.136,292.485,177.066z"/>
		<path style="fill:#84BD93;" d="M285.541,172.513c0.376,0.225,0.744,0.45,1.111,0.677
			C286.285,172.963,285.917,172.737,285.541,172.513z"/>
		<path style="fill:#84BD93;" d="M277.735,168.244c0.301,0.151,0.611,0.3,0.909,0.452
			C278.346,168.543,278.036,168.395,277.735,168.244z"/>
		<path style="fill:#84BD93;" d="M304.862,188.676c0.213,0.277,0.418,0.554,0.621,0.831
			C305.279,189.229,305.075,188.952,304.862,188.676z"/>
		<path style="fill:#84BD93;" d="M303.057,186.479c0.183,0.208,0.348,0.417,0.525,0.626
			C303.405,186.896,303.24,186.687,303.057,186.479z"/>
		<path style="fill:#84BD93;" d="M273.599,166.256c0.429,0.198,0.858,0.396,1.281,0.596
			C274.457,166.652,274.029,166.453,273.599,166.256z"/>
		<path style="fill:#84BD93;" d="M301.088,184.368c-0.215-0.219-0.448-0.435-0.669-0.653
			C300.64,183.932,300.872,184.149,301.088,184.368z"/>
		<path style="fill:#84BD93;" d="M295.417,179.295c0.296,0.236,0.579,0.475,0.868,0.712
			C295.996,179.769,295.713,179.531,295.417,179.295z"/>
		<path style="fill:#84BD93;" d="M297.957,181.428c0.295,0.259,0.588,0.519,0.875,0.78
			C298.545,181.947,298.253,181.687,297.957,181.428z"/>
		<path style="fill:#84BD93;" d="M282.171,170.569c0.28,0.155,0.548,0.313,0.826,0.469
			C282.719,170.882,282.451,170.724,282.171,170.569z"/>
		<path style="fill:#84BD93;" d="M61.533,189.22c-0.077-0.431-0.131-0.866-0.131-1.306C61.402,188.355,61.455,188.79,61.533,189.22z
			"/>
		<path style="fill:#84BD93;" d="M269.563,164.462c0.412,0.176,0.815,0.355,1.222,0.533
			C270.378,164.817,269.976,164.638,269.563,164.462z"/>
		<path style="fill:#84BD93;" d="M75.275,183.935c-0.037-0.058-0.06-0.124-0.098-0.182
			C75.216,183.811,75.238,183.877,75.275,183.935z"/>
		<path style="fill:#84BD93;" d="M305.908,190.116c-6.941-4.787-15.498-9.242-25.438-13.163
			c-27.89-11.002-64.223-17.061-102.307-17.061c-7.122,0-14.106,0.411-20.914,1.136c65.52,0.107,98.06,13.99,119.115,26.135
			c3.596,2.075,4.83,6.671,2.756,10.267c-1.392,2.414-3.92,3.763-6.519,3.763c-1.275,0-2.566-0.695-3.749-1.377
			c-19.685-11.354-50.44-24.498-114.019-24.498c-0.01,0-0.02,0-0.028,0c-4.14,0-7.501-2.976-7.517-7.118
			c-0.011-3.081,1.836-5.542,4.484-6.713c-0.01,0.004-0.023,0.099-0.033,0.103c-30.004,4.001-56.166,14.67-74.394,23.367
			c-0.499,0.238-0.973,1.361-1.465,1.361c-0.002,0-0.006,0-0.006,0c0.363,0,0.561,1.241,0.561,2.217
			c0,1.974-0.802,3.598-2.206,5.001c-1.403,1.402-3.338,2.05-5.311,2.05c-1.975,0-3.919-0.881-5.323-2.283
			c-0.663-0.668-1.181-1.501-1.554-2.357c0.162,0.371,0.346,0.714,0.565,1.057c-12.917,7.2-22.114,13.846-27.355,18.379
			c7.473,4.999,16.612,10.529,27.159,15.899c7.339,3.738,16.003,7.7,25.728,11.372c30.476-13.896,26.668-36.311,26.486-37.284
			c-0.852-4.064,1.758-8.011,5.822-8.864c4.06-0.853,8.055,1.788,8.907,5.852c2.189,10.437-0.586,31.265-22.128,46.611
			c16.808,4.786,35.747,8.13,55.904,8.13c38.085,0,74.418-6.059,102.307-17.061c24.782-9.776,40.992-22.867,44.884-36.137
			C309.455,195.951,307.949,193.013,305.908,190.116z"/>
		<path style="fill:#84BD93;" d="M152.947,161.284c0.094-0.024,0.18-0.066,0.275-0.086
			C153.126,161.218,153.04,161.26,152.947,161.284z"/>
		<path style="fill:#84BD93;" d="M61.895,190.518c-0.109-0.294-0.202-0.595-0.274-0.901
			C61.694,189.923,61.785,190.223,61.895,190.518z"/>
		<path style="fill:#84BD93;" d="M20.464,199.611c-0.195-0.155-0.405-0.32-0.593-0.472C20.059,199.291,20.27,199.456,20.464,199.611
			z"/>
		<path style="fill:#84BD93;" d="M23.442,201.942c-0.65-0.497-1.271-0.979-1.865-1.446C22.17,200.963,22.793,201.446,23.442,201.942
			z"/>
		<path style="fill:#84BD93;" d="M34.913,210.144c-0.795-0.534-1.578-1.063-2.334-1.583
			C33.335,209.081,34.118,209.611,34.913,210.144z"/>
		<path style="fill:#84BD93;" d="M32.54,208.534c-3.449-2.373-6.493-4.598-9.096-6.59C26.046,203.936,29.091,206.161,32.54,208.534z
			"/>
	</g>
	<g>
		<path style="fill:#FDD44B;" d="M219.013,119.503c-16.024,1.073-38.255,3.917-58.739,11.202c-1.048,0.015-2.071,0.086-3.111,0.116
			c1.987-0.058,3.957-0.153,5.965-0.153c19.048,0,37.71,1.48,55.25,4.279l0.961-23.36L219.013,119.503z"/>
		<path style="fill:#FDD44B;" d="M131.571,133.035c-3.197,0.469-6.354,0.995-9.461,1.583
			C125.216,134.031,128.375,133.506,131.571,133.035z"/>
		<path style="fill:#FDD44B;" d="M151.085,131.048c-1.4,0.08-2.775,0.207-4.162,0.314
			C148.309,131.255,149.686,131.129,151.085,131.048z"/>
		<path style="fill:#FDD44B;" d="M141.21,131.836c-1.736,0.179-3.437,0.414-5.15,0.631
			C137.773,132.249,139.475,132.016,141.21,131.836z"/>
	</g>
	<g>
		<path style="fill:#84BD93;" d="M330.561,205.068c-0.171-0.23-0.322-0.445-0.484-0.669
			C330.239,204.623,330.389,204.837,330.561,205.068z"/>
		<path style="fill:#84BD93;" d="M329.055,202.956c-0.163-0.238-0.319-0.47-0.471-0.7
			C328.737,202.488,328.891,202.716,329.055,202.956z"/>
		<path style="fill:#84BD93;" d="M332.788,207.879c-0.171-0.206-0.358-0.418-0.524-0.621
			C332.429,207.461,332.616,207.672,332.788,207.879z"/>
		<path style="fill:#84BD93;" d="M336.597,212.082c0.324,0.33,0.645,0.657,0.984,0.989
			C337.242,212.74,336.92,212.412,336.597,212.082z"/>
		<path style="fill:#84BD93;" d="M335.124,210.537c-0.288-0.312-0.579-0.625-0.854-0.933
			C334.545,209.913,334.834,210.224,335.124,210.537z"/>
		<path style="fill:#84BD93;" d="M327.757,200.975c-0.111-0.177-0.229-0.361-0.333-0.53
			C327.529,200.617,327.644,200.797,327.757,200.975z"/>
		<path style="fill:#84BD93;" d="M377.927,200.416c-0.368-1.693,0.002-3.047,0.004-3.054l4.78-22.876
			c-25.366,8.019-37.253,25.063-41.166,31.979c2.741,4.842,9.438,14.71,21.982,22.936c6.254,2.355,13.359,4.198,21.526,5.115
			l-7.121-34.079C377.929,200.431,377.929,200.424,377.927,200.416z"/>
		<path style="fill:#84BD93;" d="M351.734,223.844c-0.516-0.301-1.006-0.611-1.505-0.919
			C350.729,223.233,351.218,223.542,351.734,223.844z"/>
		<path style="fill:#84BD93;" d="M340.288,215.598c-0.294-0.259-0.559-0.518-0.844-0.777
			C339.729,215.08,339.994,215.338,340.288,215.598z"/>
		<path style="fill:#84BD93;" d="M361.925,228.796c-0.604-0.243-1.217-0.479-1.803-0.731
			C360.708,228.317,361.321,228.554,361.925,228.796z"/>
		<path style="fill:#84BD93;" d="M356.558,226.421c-0.448-0.22-0.896-0.438-1.332-0.662
			C355.662,225.983,356.11,226.201,356.558,226.421z"/>
		<path style="fill:#84BD93;" d="M347.933,221.457c-0.493-0.33-0.981-0.661-1.456-0.996
			C346.953,220.796,347.439,221.126,347.933,221.457z"/>
		<path style="fill:#84BD93;" d="M344.339,218.89c-0.395-0.3-0.803-0.598-1.183-0.9C343.536,218.293,343.944,218.589,344.339,218.89
			z"/>
	</g>
	<g>
		<path style="fill:#FDD44B;" d="M139.921,265.579c0.866,0.106,1.231,0.225,2.102,0.321c2.895,6.563,8.048,14.412,18.048,19.486
			v-18.288C155.071,266.965,146.832,266.423,139.921,265.579z"/>
		<path style="fill:#FDD44B;" d="M135.899,265.28c-2.212-0.296-4.414-0.613-6.594-0.972
			C131.485,264.667,133.686,264.985,135.899,265.28z"/>
	</g>
	<path style="fill:#3F2D20;" d="M392.969,198.9l8.825-42.23c0.47-2.245-0.112-4.582-1.579-6.344
		c-1.467-1.764-3.655-2.761-5.951-2.708c-41.664,0.95-64.345,21.268-75.08,35.277c-8.737-13.263-25.29-25.067-48.233-34.117
		c-11.391-4.494-24.078-8.201-37.64-11.074l1.37-33.271c0.17-4.147-3.052-7.647-7.198-7.82
		c-4.076-0.171-98.918-3.525-136.148,45.871c-14.912,4.794-27.993,10.418-38.583,15.63c-17.398,8.559-41.774,24.123-50.161,35.258
		c-2.842,3.772-4.124,6.456,0.271,10.845c10.393,10.38,53.058,42.967,109.791,56.707c0.989,4.498,3.027,11.152,7.182,17.948
		c6.663,10.897,20.142,24.348,46.519,26.548c0.209,0.018,0.418,0.026,0.626,0.026c1.877,0,3.696-0.704,5.09-1.985
		c1.547-1.423,2.427-3.43,2.427-5.532V266.94c35.779-1.1,69.676-7.353,96.456-17.917c22.941-9.05,39.494-20.852,48.231-34.117
		c10.735,14.009,33.416,34.326,75.081,35.276c0.057,0.001,0.114,0.002,0.171,0.002c2.231,0,4.349-0.992,5.779-2.71
		c1.467-1.764,2.049-4.099,1.579-6.344L392.969,198.9z M385.053,163.283l-7.121,34.08c-0.002,0.007-0.372,1.361-0.004,3.054
		c0.002,0.008,0.002,0.015,0.004,0.022l7.121,34.079c-37.564-4.218-53.843-27.309-58.541-35.613
		C331.227,190.568,347.51,167.5,385.053,163.283z M265.436,235.038c-27.889,11.002-64.222,17.061-102.307,17.061
		c-20.156,0-39.096-3.344-55.904-8.13c21.542-15.346,24.317-36.174,22.129-46.611c-0.852-4.064-4.847-6.705-8.907-5.852
		c-4.064,0.853-6.674,4.799-5.822,8.863c0.182,0.974,3.99,23.387-26.486,37.283c-9.725-3.672-18.39-7.637-25.728-11.374
		c-20.896-10.641-36.288-21.934-44.085-28.402c6.199-5.829,21.128-16.782,43.986-27.689c23.41-11.17,59.903-24.484,100.817-24.484
		c38.084,0,74.417,6.059,102.306,17.061c24.783,9.775,40.994,22.866,44.885,36.138C306.428,212.172,290.218,225.262,265.436,235.038
		z M159.463,289.224c-18.642-4.126-26.699-16.107-30.159-24.916c9.747,1.606,19.825,2.599,30.159,2.79V289.224z M218.378,134.947
		c-17.539-2.799-36.201-4.279-55.25-4.279c-14.305,0-28.071,1.503-41.018,3.95c31.579-20.163,78.983-22.807,97.229-23.031
		L218.378,134.947z"/>
</g>
<g>
</g>
<g>
</g>
<g>
</g>
<g>
</g>
<g>
</g>
<g>
</g>
<g>
</g>
<g>
</g>
<g>
</g>
<g>
</g>
<g>
</g>
<g>
</g>
<g>
</g>
<g>
</g>
<g>
</g>
</svg>
